<?xml version="1.0" encoding="utf-8"?>
<!-- Generator: Adobe Illustrator 19.0.0, SVG Export Plug-In . SVG Version: 6.00 Build 0)  -->
<svg version="1.1" id="Layer_1" xmlns="http://www.w3.org/2000/svg" xmlns:xlink="http://www.w3.org/1999/xlink" x="0px" y="0px"
	 viewBox="0 0 512 512" style="enable-background:new 0 0 512 512;" xml:space="preserve">
<g id="XMLID_2_">
	<path id="XMLID_6_" d="M432.8,216.4v39.2c0,45.2-15.3,84.3-45.2,118.4c-29.8,33.2-67.3,52.8-111.6,57.9v40.9h78.4
		c5.1,0,10.2,1.7,13.6,6c4.3,4.3,6,8.5,6,13.6c0,5.1-1.7,10.2-6,13.6c-4.3,4.3-8.5,6-13.6,6H157.6c-5.1,0-10.2-1.7-13.6-6
		c-4.3-4.3-6-8.5-6-13.6c0-5.1,1.7-10.2,6-13.6c4.3-4.3,8.5-6,13.6-6H236v-40.9c-44.3-5.1-81.8-23.9-111.6-57.9
		s-45.2-73.3-45.2-118.4v-39.2c0-5.1,1.7-10.2,6-13.6c4.3-4.3,8.5-6,13.6-6s10.2,1.7,13.6,6c4.3,4.3,6,8.5,6,13.6v39.2
		c0,37.5,13.6,70.7,40,97.1s59.6,40,97.1,40s70.7-13.6,97.1-40c26.4-26.4,40-59.6,40-97.1v-39.2c0-5.1,1.7-10.2,6-13.6
		c4.3-4.3,8.5-6,13.6-6c5.1,0,10.2,1.7,13.6,6C430.2,206.2,432.8,211.3,432.8,216.4z M353.5,98v157.6c0,27.3-9.4,50.3-29,69
		c-19.6,19.6-42.6,29-69,29s-50.3-9.4-69-29c-19.6-19.6-29-42.6-29-69V98c0-27.3,9.4-50.3,29-69c19.6-19.6,42.6-29,69-29
		s50.3,9.4,69,29C344.2,47.7,353.5,71.6,353.5,98z"/>
</g>
</svg>
