<?xml version="1.0" encoding="utf-8"?>
<!-- Svg Vector Icons : http://www.onlinewebfonts.com/icon -->
<!DOCTYPE svg PUBLIC "-//W3C//DTD SVG 1.1//EN" "http://www.w3.org/Graphics/SVG/1.1/DTD/svg11.dtd">
<svg version="1.1" xmlns="http://www.w3.org/2000/svg" xmlns:xlink="http://www.w3.org/1999/xlink" x="0px" y="0px" viewBox="0 0 256 256" enable-background="new 0 0 256 256" xml:space="preserve">
<metadata> Svg Vector Icons : http://www.onlinewebfonts.com/icon </metadata>
<g><g><g><path fill="#000000" d="M175.1,175.1l-70.9-38.2v77L175.1,175.1z M246,128v94.7c0,6.3-2.3,11.7-6.9,16.4c-4.6,4.6-10,6.9-16.3,6.9H33.3c-6.3,0-11.7-2.3-16.4-6.9S10,229,10,222.7V128c0-6.3,2.3-11.8,6.9-16.6c4.6-4.8,10.1-7.2,16.4-7.2h189.5c6.3,0,11.7,2.4,16.4,7.2C243.7,116.2,246,121.7,246,128z M198.9,10v23.3H57.1V10H198.9z M222.7,80.9H33.3V57.1h189.5V80.9L222.7,80.9z"/></g></g></g>
</svg>