<?xml version="1.0" encoding="utf-8"?>
<!-- Svg Vector Icons : http://www.onlinewebfonts.com/icon -->
<!DOCTYPE svg PUBLIC "-//W3C//DTD SVG 1.1//EN" "http://www.w3.org/Graphics/SVG/1.1/DTD/svg11.dtd">
<svg version="1.1" xmlns="http://www.w3.org/2000/svg" xmlns:xlink="http://www.w3.org/1999/xlink" x="0px" y="0px" viewBox="0 0 256 256" enable-background="new 0 0 256 256" xml:space="preserve">
<metadata> Svg Vector Icons : http://www.onlinewebfonts.com/icon </metadata>
<g><g><g><path fill="#000000" d="M30.7,10.3c-9,1.5-16.3,7.9-19.6,17l-1.1,3V128v97.7l1.1,3c2.9,8,8.2,13.3,16.3,16.3l3,1.1H128h97.7l3.3-1.2c7.8-2.8,13.1-8.3,16-16.1l1.1-3V128V30.4l-1.1-3c-2.9-8-8.3-13.4-16.3-16.3l-3-1.1l-96.3,0C76.4,9.9,32,10.1,30.7,10.3z M124.4,97.2c11.5,6.7,28.4,16.4,37.6,21.6c9.2,5.2,16.8,9.6,16.7,9.7c0,0.1-8.1,4.6-18.1,9.9c-9.9,5.3-27.1,15-38.1,21.3c-11,6.4-20.1,11.7-20.2,11.7s-0.2-19.5-0.2-43.5c0-38.7,0.1-43.5,0.7-43.2C103.2,84.9,112.9,90.5,124.4,97.2z"/></g></g></g>
</svg>